PathFileType	4	(X/Y/Z)	c:/Users/goper/Files/vsCode/490R/osim_files/C07/C07_SSWS_05.trc
DataRate	CameraRate	NumFrames	NumMarkers	Units                	OrigDataRate	OrigDataStartFrame	OrigNumFrames
250.00	250.00	11	36	mm	250.0	2592	2962
                Frame#	Time	LPSIS			LASIS			LTH1			LTH2			LTH3			LTH4			LLFE			LMFE			LSH1			LSH2			LSH3			LSH4			LLMAL			LMMAL			LCAL			LMTP5			LTOE			LMTP1			RPSIS			RASIS			RTH1			RTH2			RTH3			RTH4			RLFE			RMFE			RSH1			RSH2			RSH3			RSH4			RLMAL			RMMAL			RCAL			RMTP1			RTOE			RMTP5		
		X1	Y1	Z1	X2	Y2	Z2	X3	Y3	Z3	X4	Y4	Z4	X5	Y5	Z5	X6	Y6	Z6	X7	Y7	Z7	X8	Y8	Z8	X9	Y9	Z9	X10	Y10	Z10	X11	Y11	Z11	X12	Y12	Z12	X13	Y13	Z13	X14	Y14	Z14	X15	Y15	Z15	X16	Y16	Z16	X17	Y17	Z17	X18	Y18	Z18	X19	Y19	Z19	X20	Y20	Z20	X21	Y21	Z21	X22	Y22	Z22	X23	Y23	Z23	X24	Y24	Z24	X25	Y25	Z25	X26	Y26	Z26	X27	Y27	Z27	X28	Y28	Z28	X29	Y29	Z29	X30	Y30	Z30	X31	Y31	Z31	X32	Y32	Z32	X33	Y33	Z33	X34	Y34	Z34	X35	Y35	Z35	X36	Y36	Z36

2592	10.36400	-2708.34058	1000.47754	264.01678	-2821.57397	976.47144	420.53403	0.00000	0.00000	0.00000	0.00000	0.00000	0.00000	-2756.55225	625.47528	393.47165	-2827.75562	708.32660	416.09113	-2737.16821	504.21616	351.60431	0.00000	0.00000	0.00000	0.00000	0.00000	0.00000	0.00000	0.00000	0.00000	-2714.80737	320.88403	320.63721	-2709.74243	279.56573	308.26294	-2623.74048	113.57636	240.44818	-2661.30957	139.25864	173.98114	-2564.23120	58.95891	178.46402	-2730.15918	38.16926	280.03149	-2795.76855	47.62343	238.76137	-2775.82739	38.69189	181.13449	0.00000	0.00000	0.00000	-2945.20044	975.15924	198.97163	0.00000	0.00000	0.00000	-2987.43311	757.44843	124.08843	-3009.97021	678.01550	126.79183	-3026.09473	767.63007	192.24159	-3001.99780	487.73752	158.36292	-2980.70483	494.82138	256.82889	0.00000	0.00000	0.00000	-3097.02295	290.71896	130.81119	-3109.49707	350.26443	151.10262	0.00000	0.00000	0.00000	-3128.22461	107.20107	160.23312	-3108.61206	122.73363	241.79897	-3077.58618	40.47391	183.55244	-3227.00391	101.40004	323.20190	-3274.50903	120.77783	292.47293	0.00000	0.00000	0.00000
2593	10.36800	-2710.93848	1000.45990	263.91251	-2824.33008	976.14990	421.46417	0.00000	0.00000	0.00000	0.00000	0.00000	0.00000	-2758.90479	625.30835	393.99994	-2829.95093	707.99377	416.93689	-2739.34448	504.13367	352.14468	-2760.76245	505.97549	231.71858	0.00000	0.00000	0.00000	0.00000	0.00000	0.00000	-2716.52344	321.03366	320.91696	-2711.01440	279.56198	308.56558	-2623.95874	114.17651	240.38390	-2661.87012	139.73848	173.97388	-2564.45557	59.84737	178.34503	-2730.35181	38.32705	279.98145	-2795.78906	47.60314	238.79413	-2775.24170	38.52000	181.65424	0.00000	0.00000	0.00000	-2949.23535	974.67712	200.56955	0.00000	0.00000	0.00000	-2990.56299	756.77618	125.47008	-3012.73120	677.30347	128.08316	-3031.08130	767.42957	193.62962	-3004.60669	487.44104	159.22684	-2982.78906	493.94873	257.58963	0.00000	0.00000	0.00000	-3101.99951	290.22028	133.33388	-3110.42041	348.30521	152.60942	0.00000	0.00000	0.00000	-3132.22046	106.63746	163.09888	-3112.46216	122.51894	244.56215	-3082.68481	39.92292	186.30261	-3231.13403	102.07120	328.08868	-3277.68335	121.68346	297.78967	0.00000	0.00000	0.00000
2594	10.37200	-2719.58203	999.63196	266.37506	-2826.92505	975.80164	422.43802	0.00000	0.00000	0.00000	0.00000	0.00000	0.00000	-2761.22119	625.17175	394.56622	-2832.37695	707.76001	417.84381	-2741.58423	504.11456	352.62265	-2764.36768	506.25336	231.94034	0.00000	0.00000	0.00000	0.00000	0.00000	0.00000	-2717.92847	321.06110	321.21494	-2712.08643	279.55417	308.83456	-2624.31494	114.81947	240.32973	-2662.44800	140.19081	173.96353	-2565.09180	60.69946	178.05263	-2730.36768	38.34512	279.91681	-2795.85767	47.58994	238.82849	-2775.31372	38.51056	181.58360	0.00000	0.00000	0.00000	-2953.06909	974.17151	202.11781	0.00000	0.00000	0.00000	-2993.65796	756.11853	126.90192	-3015.64038	676.61188	129.48982	-3034.33813	766.57220	194.96245	0.00000	0.00000	0.00000	-2984.95483	493.11441	258.40115	-3064.05957	326.10281	121.94341	-3104.55737	289.56659	135.16801	-3113.68848	347.82214	154.52571	0.00000	0.00000	0.00000	-3136.81738	106.17162	166.22229	-3116.07983	122.29273	247.38913	-3089.74146	38.30268	189.72757	-3231.93237	102.78092	332.05829	-3274.66357	118.99868	301.79507	0.00000	0.00000	0.00000
2595	10.37600	-2723.22339	999.48053	266.70599	-2829.64136	975.61530	423.30768	0.00000	0.00000	0.00000	0.00000	0.00000	0.00000	-2763.57666	624.72491	394.61340	-2834.78662	707.58276	418.72186	-2743.79614	503.98923	353.07004	-2767.15210	506.02280	232.64056	-2681.41211	321.54703	330.51657	0.00000	0.00000	0.00000	-2719.47632	321.09283	321.56992	-2713.58325	279.72983	309.11029	-2624.86426	115.36423	240.44380	-2662.31445	140.59009	174.45808	-2565.29004	61.76749	177.96048	-2730.49438	38.43439	279.83936	-2795.88892	47.58907	238.84401	-2776.05005	38.59575	181.01810	0.00000	0.00000	0.00000	-2956.93311	973.72223	203.65576	0.00000	0.00000	0.00000	-2996.87891	755.47522	128.40720	0.00000	0.00000	0.00000	-3037.67456	765.91693	196.35254	-3009.70776	486.60794	161.07727	-2987.12305	492.37479	259.29077	0.00000	0.00000	0.00000	-3109.00049	288.89951	137.64421	-3116.69116	347.18826	156.46440	0.00000	0.00000	0.00000	-3140.81348	105.45968	169.29585	-3119.44116	122.05219	250.08784	-3093.59473	37.72354	192.56799	-3234.16724	103.43608	336.14682	-3283.45483	123.00362	307.45065	0.00000	0.00000	0.00000
2596	10.38000	-2726.86938	999.27423	267.15973	-2832.45483	975.44891	424.23224	0.00000	0.00000	0.00000	0.00000	0.00000	0.00000	-2765.97827	624.69629	395.17087	-2837.00220	707.29169	419.69080	-2746.18018	503.89575	353.60788	0.00000	0.00000	0.00000	-2685.14673	323.06879	331.95831	0.00000	0.00000	0.00000	0.00000	0.00000	0.00000	-2714.92822	279.78113	309.48474	-2625.36206	116.05148	240.52988	-2663.79102	141.18697	174.16109	-2565.55688	62.66423	177.85011	-2730.48364	38.41344	279.77118	-2795.95703	47.61142	238.86192	-2775.43848	38.52140	181.53629	0.00000	0.00000	0.00000	-2960.91724	973.29877	205.20508	0.00000	0.00000	0.00000	-3000.14404	754.92395	129.96368	-3021.45239	675.23615	132.48059	-3041.00024	765.15216	197.84377	-3012.32129	486.07928	162.07185	-2989.44019	491.69342	260.29483	0.00000	0.00000	0.00000	-3111.09399	288.10858	139.27283	-3122.08350	347.96420	158.89484	0.00000	0.00000	0.00000	-3145.09863	104.79022	172.61000	-3122.43945	121.79912	252.74577	-3099.14624	36.40092	196.96159	-3237.69580	103.87964	340.48560	-3285.88550	123.18574	311.80283	0.00000	0.00000	0.00000
2597	10.38400	-2730.43872	999.15527	267.46582	-2835.19067	975.20294	425.12927	0.00000	0.00000	0.00000	0.00000	0.00000	0.00000	-2768.33325	624.58844	395.75201	-2839.33252	706.99292	420.65829	-2748.60767	503.85349	354.22043	0.00000	0.00000	0.00000	-2686.67969	323.29538	332.34604	0.00000	0.00000	0.00000	0.00000	0.00000	0.00000	-2716.10376	279.80380	309.76358	-2623.03760	117.43110	239.15254	-2664.41235	141.78363	174.21445	-2565.47803	63.52145	178.08255	-2730.53296	38.38805	279.75650	-2794.78320	46.72727	237.76224	-2775.48218	38.52410	181.49660	0.00000	0.00000	0.00000	-2965.00586	972.91553	206.81140	0.00000	0.00000	0.00000	-3003.45898	754.30963	131.59561	-3024.56152	674.63367	133.95526	-3044.46802	764.53424	199.36104	-3015.01587	485.56833	163.06757	-2991.90894	491.04333	261.43726	0.00000	0.00000	0.00000	-3113.98999	287.22086	141.30719	-3124.67944	347.14722	160.52759	0.00000	0.00000	0.00000	-3148.31714	103.83818	175.47566	-3125.35767	121.54234	255.45204	-3100.20117	36.56879	198.68228	-3239.46460	104.41335	344.13950	-3288.15576	123.20875	315.70450	0.00000	0.00000	0.00000
2598	10.38800	-2734.09668	999.03308	267.87781	-2837.97510	974.99481	426.03827	-2756.23999	775.80731	423.24658	0.00000	0.00000	0.00000	-2770.78589	624.40869	396.38956	-2841.89404	706.78613	421.61343	-2751.05859	503.71048	354.78802	-2774.89771	505.21915	235.18178	-2688.24414	323.52057	332.70166	0.00000	0.00000	0.00000	0.00000	0.00000	0.00000	-2717.64868	279.96234	310.13776	-2624.08130	118.19017	239.03981	-2665.18384	142.29953	174.39554	-2566.09326	64.66954	177.86111	-2730.62207	38.36996	279.76630	-2794.84839	46.66635	237.86478	-2776.17871	38.62201	180.94676	0.00000	0.00000	0.00000	-2969.00122	972.58246	208.36761	0.00000	0.00000	0.00000	-3006.86572	753.79907	133.21321	-3027.83838	674.05591	135.55861	-3047.79810	763.76385	201.04094	0.00000	0.00000	0.00000	-2994.62695	490.53162	262.78561	-3075.85742	322.18231	128.88557	-3116.57812	286.22791	143.18317	-3125.01270	344.81192	161.60541	0.00000	0.00000	0.00000	-3151.23584	103.07661	178.33708	-3128.07520	121.34736	258.07370	-3102.77124	36.73796	201.40448	-3241.14673	104.80424	347.46158	-3290.05249	122.80840	319.29645	0.00000	0.00000	0.00000
2599	10.39200	-2737.73730	998.77057	268.38022	-2840.64478	974.68384	426.95706	0.00000	0.00000	0.00000	0.00000	0.00000	0.00000	-2773.18457	624.33362	397.02078	-2844.31860	706.60504	422.55774	-2753.39795	503.59818	355.38773	-2777.82764	505.15546	235.93362	-2689.91187	323.75952	333.05289	0.00000	0.00000	0.00000	0.00000	0.00000	0.00000	-2719.02490	279.96933	310.52625	-2624.64722	118.82870	239.23943	-2665.90454	142.93941	174.53380	-2566.45605	65.67622	177.90048	-2730.69385	38.33496	279.87057	-2794.95508	46.68602	238.06497	-2776.28101	38.65046	180.94699	0.00000	0.00000	0.00000	-2972.93579	972.20947	209.92636	0.00000	0.00000	0.00000	-3010.36694	753.30780	134.88977	0.00000	0.00000	0.00000	-3051.40723	763.18445	202.81787	-3020.46045	484.44473	165.26810	-2997.31030	490.00934	264.16235	-3078.23022	321.06201	130.63689	-3118.92578	285.17007	145.01949	-3127.44946	343.88824	163.12643	0.00000	0.00000	0.00000	-3153.69775	102.22901	181.09204	-3130.75098	121.28933	260.65390	-3106.78345	36.39996	205.21562	-3241.04907	104.72945	350.14481	-3282.94312	121.93195	321.32812	0.00000	0.00000	0.00000
2600	10.39600	-2741.38477	998.58826	268.76404	-2843.47168	974.46118	427.92810	-2761.30811	775.48724	424.36319	0.00000	0.00000	0.00000	-2775.76416	624.20294	397.62256	-2846.83325	706.39667	423.54971	-2756.08008	503.53793	356.10068	0.00000	0.00000	0.00000	-2691.62256	324.03964	333.48956	0.00000	0.00000	0.00000	0.00000	0.00000	0.00000	-2720.36865	280.10260	310.95291	-2625.11768	119.60248	239.39857	-2666.69336	143.50276	174.71449	-2566.40649	66.75460	178.06783	-2730.76123	38.32496	279.90854	-2797.55420	48.39826	239.93068	-2775.72095	38.51469	181.57207	0.00000	0.00000	0.00000	-2976.79175	971.79486	211.52037	0.00000	0.00000	0.00000	-3013.95654	752.84772	136.64690	0.00000	0.00000	0.00000	-3054.85132	762.51459	204.66484	0.00000	0.00000	0.00000	-3000.22095	489.50507	265.73715	0.00000	0.00000	0.00000	-3120.91553	283.97394	146.87790	-3129.82495	342.89389	164.63367	0.00000	0.00000	0.00000	-3155.36621	101.20179	183.35794	-3132.94556	121.08025	262.96252	-3104.62866	37.95076	205.93384	-3242.20825	104.57098	352.92798	0.00000	0.00000	0.00000	0.00000	0.00000	0.00000
2601	10.40000	-2745.08154	998.45813	269.20007	-2846.33154	974.31274	428.83084	-2763.96362	775.36713	424.83762	0.00000	0.00000	0.00000	-2778.29248	624.04364	398.29205	-2849.28149	706.14374	424.52304	-2758.81812	503.35089	356.71793	0.00000	0.00000	0.00000	-2693.46265	324.31979	333.95337	0.00000	0.00000	0.00000	0.00000	0.00000	0.00000	-2721.98071	280.21713	311.38425	-2627.23267	119.73260	240.98711	-2667.62231	144.07089	174.86221	-2567.14355	67.84837	177.86369	-2730.81128	38.27316	279.96725	-2797.77808	48.59575	240.69676	-2775.81665	38.48576	181.58330	0.00000	0.00000	0.00000	-2980.77173	971.43359	213.21245	0.00000	0.00000	0.00000	0.00000	0.00000	0.00000	0.00000	0.00000	0.00000	-3058.31299	761.88220	206.61224	0.00000	0.00000	0.00000	-3003.12769	489.04926	267.34952	0.00000	0.00000	0.00000	-3122.89575	282.81100	148.66611	-3130.08936	341.09000	166.13765	0.00000	0.00000	0.00000	-3157.26489	100.31203	185.70164	-3131.77905	120.71465	264.13672	-3110.03784	36.80121	209.47284	-3243.20410	103.99818	355.34607	-3291.35596	118.35653	328.27493	0.00000	0.00000	0.00000
2602	10.40400	-2748.73779	998.29614	269.66165	-2849.08179	974.14008	429.72372	0.00000	0.00000	0.00000	0.00000	0.00000	0.00000	-2780.94238	623.80884	399.01135	-2851.76611	705.94739	425.50403	-2761.27563	503.15015	357.42377	-2787.30103	504.47992	238.52771	-2695.21265	324.58963	334.41400	0.00000	0.00000	0.00000	0.00000	0.00000	0.00000	-2723.49487	280.32559	311.85919	-2626.50439	120.98058	239.66113	-2668.36182	144.80037	174.98984	-2567.56348	69.10823	177.86421	-2730.84253	38.25938	279.98483	-2798.01538	48.97140	241.69769	-2775.93286	38.45914	181.64597	0.00000	0.00000	0.00000	-2984.82983	971.15045	214.85043	0.00000	0.00000	0.00000	-3021.44678	752.07172	140.24408	-3041.86499	672.11896	142.18695	-3061.81592	761.30933	208.55414	0.00000	0.00000	0.00000	-3006.09253	488.64536	269.11435	0.00000	0.00000	0.00000	-3124.65869	281.54788	150.47255	-3132.26196	339.98868	167.72173	0.00000	0.00000	0.00000	-3158.91162	99.36684	187.84807	-3133.56567	120.10337	266.21356	-3107.19653	38.31158	209.59486	-3242.04834	102.80955	356.76453	0.00000	0.00000	0.00000	0.00000	0.00000	0.00000
